# xmcd CD database file
#
# Track frame offsets:
#	150
#	11340
#	19844
#	26260
#	37554
#	50313
#	62575
#
# Disc length: 1018 seconds
#
# Revision: 0
# Processed by: cddbd v1.5.1PL0 Copyright (c) Steve Scherf et al.
# Submitted via: CDex 1.51
#
DISCID=3e03f807
DTITLE=Virginia Hesse - Yodeling Cowgirls
DYEAR=1900
DGENRE=Country
TTITLE0=Whatever happened to the yodeling cowgirl
TTITLE1=The star spangled banner
TTITLE2=God bless America
TTITLE3=I'm gonna ride
TTITLE4=I wanna be a cowboy's swettheart
TTITLE5=Rocky top
TTITLE6=I bowed down and cried holy
EXTD=
EXTT0=
EXTT1=
EXTT2=
EXTT3=
EXTT4=
EXTT5=
EXTT6=
PLAYORDER=
